<?xml version="1.0" standalone="no"?><!DOCTYPE svg PUBLIC "-//W3C//DTD SVG 1.1//EN" "http://www.w3.org/Graphics/SVG/1.1/DTD/svg11.dtd"><svg t="1649557351554" class="icon" viewBox="0 0 1027 1024" version="1.1" xmlns="http://www.w3.org/2000/svg" p-id="3952" xmlns:xlink="http://www.w3.org/1999/xlink" width="200.5859375" height="200"><defs><style type="text/css">@font-face { font-family: feedback-iconfont; src: url("//at.alicdn.com/t/font_1031158_u69w8yhxdu.woff2?t=1630033759944") format("woff2"), url("//at.alicdn.com/t/font_1031158_u69w8yhxdu.woff?t=1630033759944") format("woff"), url("//at.alicdn.com/t/font_1031158_u69w8yhxdu.ttf?t=1630033759944") format("truetype"); }
</style></defs><path d="M836.266667 460.8c-3.413333 0-10.24-3.413333-13.653334-3.413333l-256-256c-3.413333-3.413333-6.826667-6.826667-3.413333-13.653334 0-3.413333 3.413333-10.24 6.826667-13.653333l136.533333-119.466667c34.133333-34.133333 81.92-54.613333 133.12-54.613333s98.986667 20.48 133.12 54.613333 54.613333 81.92 54.613333 133.12-20.48 95.573333-54.613333 133.12l-119.466667 136.533334c-6.826667 0-10.24 3.413333-17.066666 3.413333z m-232.106667-273.066667l232.106667 232.106667 109.226666-122.88c27.306667-27.306667 44.373333-68.266667 44.373334-109.226667s-17.066667-78.506667-44.373334-109.226666-68.266667-44.373333-109.226666-44.373334-78.506667 17.066667-109.226667 44.373334l-122.88 109.226666z" fill="#32a873" p-id="3953"></path><path d="M679.253333 208.213333c-3.413333 0-10.24-3.413333-13.653333-6.826666-6.826667-6.826667-6.826667-17.066667 0-23.893334L750.933333 102.4c47.786667-47.786667 122.88-44.373333 170.666667 0 6.826667 6.826667 6.826667 17.066667 0 23.893333s-17.066667 6.826667-23.893333 0c-30.72-30.72-88.746667-30.72-119.466667 0L689.493333 204.8c-3.413333 0-6.826667 3.413333-10.24 3.413333zM631.466667 1024C293.546667 1024 0 730.453333 0 392.533333c0-6.826667 3.413333-13.653333 10.24-17.066666l563.2-204.8c10.24-3.413333 17.066667 0 20.48 10.24 3.413333 10.24 0 17.066667-10.24 20.48L34.133333 402.773333c6.826667 310.613333 276.48 580.266667 587.093334 587.093334L819.2 436.906667c3.413333-10.24 13.653333-13.653333 20.48-10.24 10.24 3.413333 13.653333 13.653333 10.24 20.48l-204.8 563.2c0 10.24-6.826667 13.653333-13.653333 13.653333z" fill="#32a873" p-id="3954"></path><path d="M204.8 836.266667c-3.413333 0-10.24 0-13.653333-3.413334-6.826667-6.826667-6.826667-17.066667 0-23.893333L686.08 310.613333c6.826667-6.826667 17.066667-6.826667 23.893333 0s6.826667 17.066667 0 23.893334L218.453333 832.853333c-3.413333 3.413333-10.24 3.413333-13.653333 3.413334zM409.6 972.8c-3.413333 0-6.826667 0-10.24-3.413333-6.826667-3.413333-10.24-17.066667-6.826667-23.893334L750.933333 382.293333c6.826667-6.826667 17.066667-10.24 23.893334-6.826666 6.826667 3.413333 10.24 17.066667 6.826666 23.893333L423.253333 965.973333c-3.413333 3.413333-6.826667 6.826667-13.653333 6.826667zM68.266667 631.466667c-6.826667 0-10.24-3.413333-13.653334-6.826667-3.413333-6.826667-3.413333-17.066667 6.826667-23.893333L621.226667 242.346667c6.826667-3.413333 17.066667-3.413333 23.893333 6.826666 3.413333 6.826667 3.413333 17.066667-6.826667 23.893334L78.506667 628.053333c-3.413333 3.413333-6.826667 3.413333-10.24 3.413334z" fill="#32a873" p-id="3955"></path></svg>