<?xml version="1.0" standalone="no"?><!DOCTYPE svg PUBLIC "-//W3C//DTD SVG 1.1//EN" "http://www.w3.org/Graphics/SVG/1.1/DTD/svg11.dtd"><svg t="1649558233025" class="icon" viewBox="0 0 1024 1024" version="1.1" xmlns="http://www.w3.org/2000/svg" p-id="5104" xmlns:xlink="http://www.w3.org/1999/xlink" width="200" height="200"><defs><style type="text/css">@font-face { font-family: feedback-iconfont; src: url("//at.alicdn.com/t/font_1031158_u69w8yhxdu.woff2?t=1630033759944") format("woff2"), url("//at.alicdn.com/t/font_1031158_u69w8yhxdu.woff?t=1630033759944") format("woff"), url("//at.alicdn.com/t/font_1031158_u69w8yhxdu.ttf?t=1630033759944") format("truetype"); }
</style></defs><path d="M891.6 918.1H131.7c-20.1 0-36.5-16.3-36.5-36.5 0-62.6 23.1-123.2 66.9-175.3C203.3 657.4 261 618 329 592.5c12.5-4.7 26.5-2.2 36.6 6.5 42.2 36.2 94 56.2 146 56.2s103.8-20 146-56.2c10.1-8.7 24.1-11.2 36.6-6.5 68 25.5 125.7 64.9 166.9 113.8 43.8 52 66.9 112.7 66.9 175.3 0.1 20.1-16.3 36.5-36.4 36.5z m-719.7-73h679.5c-15-73.2-74.6-138-163.9-176.7-52 38.6-113.7 59.7-175.9 59.7S387.8 707 335.7 668.4c-89.2 38.7-148.8 103.5-163.8 176.7z" p-id="5105" fill="#32a873"></path><path d="M511.7 610.6c-31.2 0-61.4-7-89.8-20.7-27.1-13.1-51.3-31.8-72-55.4-41.7-47.7-64.6-110.9-64.6-177.8s23-130.1 64.6-177.8c20.7-23.7 44.9-42.4 72-55.5 28.4-13.8 58.6-20.7 89.8-20.7 31.2 0 61.4 7 89.8 20.7 27.1 13.1 51.3 31.8 72 55.5 41.7 47.7 64.6 110.9 64.6 177.8s-23 130.1-64.6 177.8c-20.7 23.7-44.9 42.3-72 55.4-28.4 13.7-58.6 20.7-89.8 20.7z m0-435.1c-84.6 0-153.5 81.2-153.5 181.1 0 99.8 68.9 181 153.5 181s153.5-81.2 153.5-181c0-99.9-68.9-181.1-153.5-181.1z" p-id="5106" fill="#32a873"></path></svg>