<?xml version="1.0" standalone="no"?><!DOCTYPE svg PUBLIC "-//W3C//DTD SVG 1.1//EN" "http://www.w3.org/Graphics/SVG/1.1/DTD/svg11.dtd"><svg t="1649558355727" class="icon" viewBox="0 0 1024 1024" version="1.1" xmlns="http://www.w3.org/2000/svg" p-id="6808" xmlns:xlink="http://www.w3.org/1999/xlink" width="200" height="200"><defs><style type="text/css">@font-face { font-family: feedback-iconfont; src: url("//at.alicdn.com/t/font_1031158_u69w8yhxdu.woff2?t=1630033759944") format("woff2"), url("//at.alicdn.com/t/font_1031158_u69w8yhxdu.woff?t=1630033759944") format("woff"), url("//at.alicdn.com/t/font_1031158_u69w8yhxdu.ttf?t=1630033759944") format("truetype"); }
</style></defs><path d="M249.6 938.666667c-4.266667 0-8.533333-2.133333-12.8-4.266667-6.4-4.266667-10.666667-12.8-8.533333-21.333333L277.333333 633.6l-206.933333-202.666667c-6.4-6.4-8.533333-14.933333-6.4-21.333333 2.133333-8.533333 8.533333-12.8 17.066667-14.933333l285.866666-40.533334 125.866667-256c4.266667-8.533333 10.666667-12.8 19.2-12.8s14.933333 4.266667 19.2 12.8l128 256 283.733333 40.533334c8.533333 2.133333 14.933333 6.4 17.066667 14.933333 2.133333 8.533333 0 17.066667-6.4 21.333333L746.666667 633.6l49.066666 281.6c2.133333 8.533333-2.133333 17.066667-8.533333 21.333333-6.4 4.266667-14.933333 6.4-23.466667 2.133334L512 802.133333l-253.866667 134.4c-2.133333 2.133333-6.4 2.133333-8.533333 2.133334zM512 755.2c4.266667 0 6.4 0 10.666667 2.133333L746.666667 878.933333l-42.666667-249.6c-2.133333-6.4 2.133333-14.933333 6.4-19.2l183.466667-179.2L640 394.666667c-6.4 0-12.8-6.4-17.066667-10.666667L512 155.733333 401.066667 384c-2.133333 6.4-8.533333 10.666667-17.066667 10.666667L130.133333 430.933333l183.466667 179.2c4.266667 4.266667 6.4 12.8 6.4 19.2l-42.666667 249.6 224-119.466666c4.266667-2.133333 6.4-4.266667 10.666667-4.266667z" p-id="6809" fill="#32a873"></path></svg>